<svg width="382" height="370" viewBox="0 0 382 370" fill="none" xmlns="http://www.w3.org/2000/svg">
<path d="M368.83 94.056L352.74 178.234C350.49 176.92 348.152 175.765 345.74 174.778C346.714 167.632 346.362 163.664 344.848 161.412C345.068 161.038 345.222 160.629 345.3 160.202C345.49 159.199 345.276 158.161 344.702 157.316C344.126 156.472 343.24 155.89 342.238 155.699C341.234 155.508 340.196 155.723 339.352 156.298C338.506 156.872 337.924 157.759 337.734 158.762C337.714 158.878 337.694 159 337.68 159.114C334.7 160.452 332.746 165.016 330.778 170.492L330.738 170.892C318.608 169.446 306.334 171.928 295.718 177.972C294.9 163.51 299.95 144.526 295.494 138.172C295.722 137.799 295.878 137.386 295.954 136.956C296.06 136.405 296.044 135.837 295.906 135.293C295.77 134.749 295.516 134.241 295.162 133.805C294.808 133.37 294.364 133.016 293.86 132.771C293.354 132.525 292.802 132.392 292.242 132.382C291.68 132.372 291.124 132.485 290.612 132.712C290.098 132.94 289.642 133.277 289.272 133.7C288.904 134.122 288.632 134.621 288.474 135.16C288.318 135.699 288.282 136.265 288.368 136.82C278.268 142.878 276.62 180.642 263.47 178.52C250.232 176.376 269.852 122.596 260.028 110.448C260.33 110.014 260.534 109.52 260.628 109C260.722 108.503 260.72 107.993 260.616 107.498C260.514 107.002 260.316 106.532 260.032 106.114C259.748 105.696 259.384 105.337 258.962 105.06C258.538 104.782 258.066 104.59 257.57 104.495C257.072 104.4 256.562 104.404 256.066 104.506C255.572 104.608 255.102 104.807 254.682 105.091C254.264 105.375 253.906 105.739 253.628 106.162C253.35 106.584 253.158 107.057 253.064 107.554C252.996 107.906 252.978 108.265 253.01 108.622C238.44 115.99 237.636 194.678 216.638 191.156C196.018 187.7 218.848 125.436 208.748 113.084C208.822 112.889 208.878 112.688 208.918 112.484C209.012 111.987 209.01 111.476 208.906 110.98C208.804 110.484 208.604 110.014 208.32 109.595C208.036 109.176 207.672 108.818 207.248 108.54C206.826 108.262 206.352 108.07 205.856 107.975C205.358 107.88 204.846 107.884 204.352 107.986C203.856 108.089 203.384 108.288 202.966 108.573C202.548 108.857 202.188 109.221 201.91 109.644C201.632 110.067 201.44 110.541 201.346 111.038C201.312 111.221 201.292 111.406 201.284 111.592C187 117.868 179.088 169.282 170.752 168.174L191.4 60.138L368.83 94.056ZM238.452 78.63C238.606 77.8248 238.518 76.9922 238.198 76.2374C237.88 75.4824 237.344 74.8392 236.658 74.389C235.974 73.9386 235.17 73.7016 234.35 73.7076C233.532 73.7138 232.732 73.9628 232.054 74.4232C231.376 74.8838 230.85 75.5348 230.542 76.2944C230.234 77.054 230.158 77.8878 230.324 78.6906C230.49 79.4932 230.89 80.2286 231.474 80.8038C232.058 81.379 232.798 81.7682 233.604 81.922C234.684 82.1244 235.798 81.8918 236.706 81.2752C237.614 80.6584 238.242 79.7076 238.452 78.63ZM221.112 75.31C221.266 74.5048 221.178 73.6722 220.858 72.9174C220.54 72.1624 220.004 71.5192 219.318 71.069C218.634 70.6186 217.83 70.3816 217.01 70.3876C216.192 70.3938 215.392 70.6428 214.714 71.1032C214.036 71.5638 213.51 72.2148 213.202 72.9744C212.894 73.734 212.818 74.5678 212.984 75.3706C213.15 76.1732 213.55 76.9086 214.134 77.4838C214.718 78.059 215.458 78.4482 216.264 78.602C217.344 78.8082 218.46 78.5772 219.37 77.9598C220.278 77.3426 220.906 76.3894 221.112 75.31ZM203.776 72C203.93 71.1952 203.84 70.3632 203.52 69.6092C203.202 68.855 202.664 68.2126 201.98 67.763C201.296 67.3134 200.492 67.077 199.674 67.0836C198.854 67.0902 198.056 67.3394 197.378 67.8C196.702 68.2604 196.176 68.9114 195.868 69.6706C195.56 70.4298 195.486 71.263 195.652 72.0652C195.818 72.8672 196.218 73.602 196.8 74.1768C197.384 74.7516 198.126 75.1402 198.93 75.294C200.01 75.498 201.126 75.2658 202.034 74.6482C202.942 74.0308 203.568 73.0786 203.776 72Z" fill="#FFE3CA"/>
<path d="M364.4 187.224C375.114 197.938 381.134 212.472 381.134 227.624C381.134 242.776 375.114 257.31 364.4 268.024C353.686 278.738 339.152 284.758 324 284.758C308.848 284.758 294.314 278.738 283.6 268.024L324 227.624L364.4 187.224Z" fill="#F5FFBB"/>
<path d="M364.4 187.224L324 227.62L283.6 187.22C291.578 179.251 301.734 173.818 312.79 171.603C323.848 169.389 335.312 170.492 345.744 174.774C348.156 175.761 350.494 176.916 352.744 178.23C357.002 180.711 360.92 183.735 364.4 187.224Z" fill="black"/>
<path d="M344.858 161.412C346.372 163.664 346.724 167.632 345.75 174.778C340.95 172.804 335.904 171.496 330.75 170.89L330.79 170.49C332.758 165.014 334.712 160.45 337.692 159.112C337.608 159.987 337.826 160.865 338.31 161.599C338.794 162.333 339.514 162.88 340.35 163.148C341.188 163.417 342.092 163.391 342.912 163.074C343.732 162.758 344.42 162.171 344.86 161.41L344.858 161.412Z" fill="#FFE3CA"/>
<path d="M342.248 155.7C343.252 155.891 344.138 156.473 344.712 157.317C345.286 158.161 345.5 159.199 345.31 160.202C345.232 160.629 345.078 161.038 344.858 161.412C343.908 160.092 342.486 159.187 340.888 158.884C339.828 158.585 338.696 158.666 337.688 159.114C337.702 159 337.722 158.878 337.744 158.762C337.838 158.265 338.028 157.791 338.306 157.368C338.584 156.944 338.942 156.58 339.36 156.296C339.778 156.011 340.25 155.812 340.744 155.71C341.24 155.608 341.752 155.604 342.248 155.7Z" fill="black"/>
<path d="M344.858 161.412C344.418 162.173 343.73 162.76 342.91 163.076C342.09 163.392 341.186 163.418 340.348 163.15C339.512 162.882 338.792 162.335 338.308 161.601C337.824 160.867 337.606 159.989 337.69 159.114C338.698 158.666 339.83 158.585 340.89 158.884C342.488 159.188 343.908 160.092 344.858 161.412Z" fill="black"/>
<path d="M324 227.62L283.6 268.02C278.292 262.716 274.082 256.418 271.208 249.486C268.336 242.554 266.856 235.124 266.856 227.62C266.856 220.116 268.336 212.686 271.208 205.754C274.082 198.822 278.292 192.524 283.6 187.22L324 227.62Z" fill="#55B8FF"/>
<path d="M292.902 132.456C293.4 132.55 293.872 132.741 294.296 133.019C294.718 133.296 295.084 133.654 295.368 134.073C295.652 134.491 295.852 134.961 295.954 135.457C296.056 135.952 296.06 136.463 295.964 136.96C295.888 137.39 295.732 137.803 295.504 138.176C294.814 137.145 293.75 136.423 292.536 136.162C291.834 135.989 291.104 135.959 290.39 136.072C289.678 136.186 288.994 136.442 288.38 136.824C288.284 136.215 288.338 135.592 288.534 135.008C288.73 134.423 289.064 133.895 289.508 133.466C289.95 133.038 290.49 132.723 291.082 132.547C291.672 132.371 292.296 132.34 292.902 132.456Z" fill="black"/>
<path d="M295.504 138.176C299.96 144.524 294.904 163.508 295.728 177.976C288.34 182.19 281.984 187.998 277.124 194.978C272.264 201.956 269.02 209.932 267.63 218.322L232.05 211.522L164.916 198.69L170.082 171.654L170.752 168.18C179.088 169.288 186.998 117.874 201.302 111.6C201.262 112.518 201.552 113.42 202.12 114.143C202.686 114.866 203.494 115.362 204.394 115.542C205.296 115.723 206.232 115.575 207.032 115.126C207.834 114.677 208.45 113.956 208.766 113.094C218.866 125.446 196.036 187.71 216.656 191.166C237.656 194.688 238.456 116 253.028 108.632C253.1 109.42 253.414 110.166 253.926 110.769C254.436 111.372 255.122 111.802 255.888 112.002C256.652 112.202 257.46 112.16 258.202 111.884C258.942 111.608 259.58 111.11 260.028 110.458C269.852 122.606 250.228 176.386 263.47 178.53C276.62 180.652 278.27 142.888 288.37 136.83C288.49 137.617 288.85 138.347 289.404 138.919C289.956 139.492 290.672 139.879 291.454 140.028C292.236 140.176 293.044 140.078 293.768 139.748C294.492 139.417 295.094 138.87 295.494 138.182L295.504 138.176Z" fill="#FFE3CA"/>
<path d="M292.536 136.162C293.75 136.423 294.814 137.145 295.504 138.176C295.104 138.864 294.502 139.411 293.778 139.742C293.054 140.072 292.246 140.17 291.464 140.022C290.682 139.873 289.966 139.486 289.414 138.913C288.86 138.341 288.5 137.611 288.38 136.824C288.994 136.442 289.678 136.186 290.392 136.073C291.104 135.959 291.834 135.989 292.536 136.162Z" fill="black"/>
<path d="M257.584 104.496C258.588 104.689 259.474 105.272 260.048 106.117C260.622 106.962 260.838 108 260.648 109.004C260.55 109.525 260.342 110.019 260.038 110.452C259.094 109.25 257.742 108.437 256.238 108.166C255.144 107.95 254.01 108.112 253.02 108.626C252.988 108.269 253.006 107.91 253.074 107.558C253.168 107.06 253.36 106.586 253.638 106.163C253.916 105.74 254.274 105.375 254.694 105.091C255.112 104.806 255.584 104.607 256.08 104.505C256.576 104.403 257.086 104.4 257.584 104.496Z" fill="black"/>
<path d="M260.038 110.452C259.59 111.104 258.952 111.602 258.212 111.878C257.47 112.154 256.662 112.195 255.898 111.996C255.132 111.796 254.446 111.366 253.936 110.763C253.424 110.16 253.11 109.414 253.038 108.626C254.028 108.112 255.162 107.95 256.256 108.166C257.754 108.441 259.098 109.254 260.038 110.452Z" fill="black"/>
<path d="M235.16 73.7742C235.966 73.9272 236.708 74.3162 237.294 74.8916C237.88 75.467 238.28 76.2032 238.448 77.0068C238.614 77.8104 238.538 78.6454 238.23 79.406C237.922 80.1668 237.396 80.819 236.716 81.2802C236.038 81.7414 235.238 81.991 234.418 81.9972C233.596 82.0032 232.792 81.766 232.106 81.315C231.42 80.864 230.884 80.2198 230.564 79.4638C230.246 78.7078 230.158 77.8742 230.312 77.0682C230.522 75.9902 231.148 75.0388 232.056 74.4216C232.966 73.8046 234.08 73.5718 235.16 73.7742Z" fill="#F5FFBB"/>
<path d="M217.818 70.462C218.624 70.6154 219.364 71.0042 219.95 71.5792C220.534 72.1544 220.934 72.8896 221.1 73.6924C221.266 74.495 221.19 75.329 220.882 76.0888C220.576 76.8486 220.048 77.5 219.37 77.9606C218.692 78.4212 217.894 78.6704 217.074 78.6766C216.254 78.6828 215.45 78.4458 214.766 77.9954C214.08 77.5452 213.544 76.9018 213.226 76.1468C212.906 75.3918 212.818 74.559 212.972 73.754C213.178 72.675 213.804 71.7222 214.714 71.1048C215.622 70.4876 216.738 70.2562 217.818 70.462Z" fill="#F5FFBB"/>
<path d="M204.372 249.374L216.696 314.702L206.908 316.548L194.59 251.22L204.372 249.374Z" fill="#55B8FF"/>
<path d="M205.872 107.976C206.876 108.169 207.762 108.752 208.336 109.597C208.91 110.443 209.126 111.482 208.936 112.486C208.896 112.691 208.84 112.891 208.766 113.086C207.894 111.984 206.634 111.256 205.244 111.05C203.906 110.842 202.534 111.03 201.302 111.592C201.31 111.406 201.33 111.221 201.364 111.038C201.556 110.034 202.14 109.148 202.984 108.574C203.83 108 204.868 107.785 205.872 107.976Z" fill="black"/>
<path d="M205.244 111.052C206.634 111.258 207.894 111.986 208.766 113.088C208.45 113.95 207.834 114.671 207.032 115.12C206.232 115.569 205.296 115.717 204.394 115.536C203.494 115.356 202.686 114.86 202.12 114.137C201.552 113.414 201.262 112.512 201.302 111.594C202.534 111.032 203.906 110.844 205.244 111.052Z" fill="black"/>
<path d="M197.692 213.96L187.907 215.806L194.592 251.238L204.376 249.392L197.692 213.96Z" fill="#F5FFBB"/>
<path d="M200.484 67.15C201.29 67.3034 202.03 67.6922 202.616 68.2672C203.2 68.8422 203.6 69.5776 203.766 70.3804C203.932 71.183 203.856 72.017 203.548 72.7768C203.242 73.5364 202.714 74.1878 202.036 74.6486C201.358 75.1092 200.56 75.3584 199.74 75.3646C198.92 75.3708 198.116 75.1336 197.432 74.6834C196.746 74.233 196.21 73.5898 195.892 72.8348C195.572 72.0798 195.484 71.247 195.638 70.442C195.846 69.3638 196.472 68.4118 197.38 67.7948C198.29 67.1778 199.406 66.9458 200.484 67.15Z" fill="#F5FFBB"/>
<path d="M183.834 292.522L189.004 319.922V319.928L179.222 321.768L174.05 294.366L183.834 292.522Z" fill="#55B8FF"/>
<path d="M170.007 219.178L160.222 221.024L174.061 294.376L183.846 292.53L170.007 219.178Z" fill="#F5FFBB"/>
<path d="M152.018 275.85L161.314 325.148L151.53 326.994L142.228 277.696L152.01 275.85H152.018Z" fill="#55B8FF"/>
<path d="M142.31 224.388L152.018 275.85H152.01L142.228 277.696L132.52 226.234L142.31 224.388Z" fill="#F5FFBB"/>
<path d="M139.152 65.9739C142.119 77.2187 141.275 89.1299 136.752 99.8439C128.964 117.947 126.905 138 130.85 157.308L131.06 158.324C131.591 160.838 131.141 163.46 129.803 165.653C128.464 167.847 126.338 169.446 123.86 170.124L122.202 170.556L122.182 170.482L102.28 94.5239C100.834 102.284 96.452 102.244 92.74 99.5119C95.162 94.0359 94.668 85.1799 89.63 86.4979C84.256 87.8979 87.928 95.9699 92.74 99.5119C90.854 103.786 87.19 106.002 82.54 99.6959L102.438 175.664L102.458 175.732L101.174 176.07C100.371 176.269 99.5472 176.371 98.72 176.374C96.577 176.369 94.491 175.682 92.765 174.412C91.0388 173.141 89.7622 171.355 89.12 169.31C83.1052 150.205 71.3826 133.402 55.53 121.16C48.8888 116.004 43.572 109.34 40.0204 101.719C36.4688 94.0985 34.7846 85.7411 35.1074 77.3397C35.4302 68.9383 37.7508 60.7346 41.8766 53.409C46.0026 46.0835 51.815 39.8467 58.8322 35.2157C65.8496 30.5847 73.8694 27.6927 82.2274 26.7797C90.5852 25.8667 99.0404 26.9589 106.892 29.9657C114.744 32.9725 121.766 37.8073 127.376 44.0693C132.986 50.3313 137.023 57.8403 139.152 65.9739Z" fill="#F5FFBB"/>
<path d="M134.048 183.27C134.219 183.914 134.262 184.585 134.172 185.245C134.083 185.905 133.864 186.54 133.528 187.116C133.192 187.69 132.745 188.194 132.214 188.596C131.682 188.996 131.077 189.29 130.432 189.456L105.288 196.04C104.644 196.208 103.973 196.248 103.313 196.158C102.654 196.066 102.019 195.846 101.444 195.51C100.87 195.174 100.367 194.726 99.9652 194.196C99.5634 193.666 99.27 193.06 99.102 192.416C98.9906 191.998 98.9342 191.566 98.934 191.132C98.9356 190.012 99.3078 188.924 99.9926 188.036C100.678 187.15 101.636 186.514 102.72 186.23L127.862 179.646C128.961 179.359 130.125 179.447 131.168 179.896C131.873 180.202 132.499 180.665 132.998 181.25C133.497 181.835 133.856 182.526 134.048 183.27Z" fill="#55B8FF"/>
<path d="M131.55 319.376L121.764 321.22L123.84 332.228L133.625 330.384L131.55 319.376Z" fill="#55B8FF"/>
<path d="M131.554 189.246C131.772 190.088 131.883 190.952 131.884 191.822C131.881 194.062 131.136 196.238 129.767 198.012C128.397 199.784 126.479 201.054 124.312 201.622L115.828 203.84C114.54 204.178 113.198 204.26 111.878 204.08C110.558 203.898 109.287 203.46 108.138 202.788C106.988 202.114 105.982 201.222 105.178 200.16C104.373 199.098 103.786 197.888 103.45 196.6L131.554 189.246Z" fill="#55B8FF"/>
<path d="M114.618 229.614L131.546 319.368L121.764 321.214L104.828 231.46L114.618 229.614Z" fill="#F5FFBB"/>
<path d="M131.466 173.378C131.573 173.798 131.627 174.23 131.628 174.664C131.628 175.786 131.257 176.876 130.572 177.764C129.887 178.652 128.927 179.288 127.842 179.572L102.7 186.156C101.934 186.358 101.131 186.378 100.357 186.21C99.5822 186.044 98.8582 185.696 98.244 185.196C97.6546 184.719 97.179 184.116 96.8514 183.432C96.5238 182.749 96.3526 182 96.35 181.242C96.3516 180.122 96.7238 179.033 97.4086 178.147C98.0934 177.26 99.0524 176.625 100.136 176.34L101.178 176.07L102.462 175.732L122.202 170.566L123.86 170.134L125.278 169.762C126.578 169.423 127.96 169.613 129.12 170.291C130.28 170.968 131.123 172.079 131.466 173.378Z" fill="#55B8FF"/>
<path d="M122.176 170.492L122.196 170.566L102.456 175.732L102.436 175.664L82.538 99.696C87.19 106.002 90.854 103.786 92.738 99.512C96.45 102.244 100.832 102.284 102.278 94.524L122.176 170.492Z" fill="#F5FFBB"/>
<path d="M89.63 86.498C94.668 85.18 95.162 94.036 92.74 99.512C87.928 95.97 84.256 87.904 89.63 86.498Z" fill="#F5FFBB"/>
<path d="M79.97 261.354C81.186 267.808 79.7888 274.482 76.0856 279.908C72.3824 285.332 66.6764 289.064 60.222 290.284L58.938 283.462C62.261 282.836 65.3376 281.278 67.8084 278.968C70.279 276.66 72.0422 273.696 72.892 270.422C73.742 267.15 73.6434 263.702 72.6078 260.484C71.5724 257.264 69.6426 254.406 67.044 252.242L71.708 247.11C76.0144 250.77 78.9314 255.798 79.97 261.354Z" fill="#55B8FF"/>
<path d="M71.708 247.11L67.044 252.242C64.0924 249.776 60.4222 248.332 56.5816 248.124C52.741 247.916 48.9364 248.956 45.736 251.09C42.5356 253.222 40.1112 256.334 38.825 259.958C37.5388 263.584 37.4598 267.526 38.6 271.2L38.49 271.234L31.758 272.506C31.574 271.856 31.426 271.2 31.298 270.532C30.3462 265.496 30.981 260.288 33.115 255.626C35.2488 250.966 38.7766 247.082 43.2114 244.512C47.6464 241.94 52.7696 240.81 57.8746 241.274C62.9794 241.74 67.8142 243.776 71.712 247.106L71.708 247.11Z" fill="#F5FFBB"/>
<path d="M65.59 331.814L67.666 342.814L49.122 346.316L47.046 335.308L65.59 331.814Z" fill="black"/>
<path d="M62.5 315.412L64.576 326.412L46.024 329.914L43.95 318.908L62.5 315.412Z" fill="black"/>
<path d="M61.656 203.464C61.836 204.428 61.7266 205.424 61.3412 206.324C60.9558 207.226 60.3118 207.994 59.4908 208.53C58.6696 209.064 57.7082 209.346 56.7278 209.334C55.7474 209.324 54.7922 209.024 53.9826 208.47C53.173 207.918 52.5456 207.138 52.1794 206.228C51.8132 205.318 51.7246 204.32 51.9252 203.36C52.1256 202.402 52.606 201.522 53.3056 200.836C54.0052 200.148 54.8928 199.684 55.856 199.502C56.497 199.38 57.1556 199.388 57.794 199.522C58.4326 199.654 59.0386 199.912 59.5772 200.28C60.1158 200.648 60.5766 201.12 60.9334 201.666C61.29 202.212 61.5356 202.822 61.656 203.464Z" fill="#F5FFBB"/>
<path d="M59.404 299.012L61.48 310.01L42.928 313.512L40.854 302.506L59.404 299.012Z" fill="black"/>
<path d="M58.938 283.462L60.222 290.284C54.112 291.436 47.7924 290.248 42.5184 286.954C37.2442 283.662 33.4018 278.506 31.754 272.51L38.486 271.238L38.596 271.204C39.8896 275.388 42.6782 278.95 46.4298 281.212C50.1814 283.472 54.6338 284.274 58.938 283.462Z" fill="black"/>
<path d="M40.886 207.378C41.0676 208.342 40.9596 209.338 40.5754 210.24C40.1912 211.142 39.5482 211.91 38.7274 212.448C37.9068 212.984 36.9454 213.266 35.9648 213.256C34.9842 213.248 34.0282 212.948 33.218 212.396C32.4076 211.842 31.7792 211.062 31.4122 210.154C31.0452 209.244 30.956 208.246 31.156 207.286C31.356 206.326 31.836 205.446 32.5354 204.758C33.235 204.072 34.1226 203.608 35.086 203.424C35.7264 203.302 36.3846 203.308 37.0228 203.442C37.661 203.574 38.2666 203.832 38.8052 204.2C39.3438 204.566 39.8048 205.036 40.162 205.582C40.519 206.128 40.765 206.738 40.886 207.378Z" fill="#F5FFBB"/>
<path d="M20.118 211.3C20.2982 212.264 20.1886 213.26 19.8032 214.16C19.4178 215.062 18.7738 215.83 17.9528 216.366C17.1318 216.9 16.1702 217.182 15.1898 217.17C14.2096 217.16 13.2542 216.86 12.4446 216.306C11.6351 215.754 11.0076 214.974 10.6414 214.064C10.2752 213.154 10.1867 212.156 10.3872 211.196C10.5877 210.238 11.068 209.358 11.7677 208.672C12.4672 207.984 13.3548 207.52 14.318 207.338C14.959 207.216 15.6178 207.222 16.2566 207.356C16.8952 207.49 17.5014 207.748 18.0402 208.116C18.579 208.484 19.0398 208.954 19.3964 209.5C19.753 210.048 19.9982 210.658 20.118 211.3Z" fill="#F5FFBB"/>
<path d="M123.854 170.134C126.332 169.456 128.458 167.857 129.796 165.663C131.135 163.47 131.585 160.848 131.054 158.334L130.844 157.318C126.899 138.01 128.958 117.957 136.746 99.854C140.568 90.7518 141.767 80.7616 140.208 71.0132C138.648 61.265 134.391 52.1476 127.92 44.6926C121.448 37.2374 113.019 31.7418 103.587 28.8274C94.1548 25.913 84.0952 25.6962 74.546 28.2012C64.997 30.7064 56.3392 35.8334 49.5522 43.0028C42.7654 50.172 38.1198 59.0974 36.1414 68.7694C34.1628 78.4414 34.93 88.474 38.3566 97.7326C41.783 106.991 47.7316 115.106 55.53 121.16C71.379 133.403 83.0978 150.207 89.11 169.31C89.752 171.355 91.0288 173.142 92.755 174.412C94.481 175.682 96.5668 176.369 98.71 176.374C99.5372 176.372 100.361 176.27 101.164 176.07" stroke="black" stroke-width="0.676" stroke-linecap="round" stroke-linejoin="round"/>
<path d="M98.238 185.2C97.6486 184.723 97.173 184.12 96.8454 183.436C96.5178 182.753 96.3466 182.004 96.344 181.246C96.3456 180.126 96.7178 179.037 97.4026 178.151C98.0874 177.264 99.0464 176.629 100.13 176.344L101.172 176.074L102.456 175.736L122.196 170.57L123.854 170.138L125.272 169.766C125.917 169.596 126.588 169.555 127.249 169.645C127.909 169.735 128.545 169.954 129.121 170.289C129.697 170.625 130.201 171.071 130.604 171.602C131.008 172.132 131.302 172.737 131.472 173.382C131.579 173.802 131.633 174.234 131.634 174.668C131.634 175.79 131.263 176.88 130.578 177.768C129.893 178.656 128.933 179.292 127.848 179.576L102.7 186.156C101.934 186.358 101.131 186.378 100.357 186.21C99.5822 186.044 98.8582 185.696 98.244 185.196" stroke="black" stroke-width="0.676" stroke-linecap="round" stroke-linejoin="round"/>
<path d="M102.28 94.524L122.176 170.492" stroke="black" stroke-width="0.676" stroke-linecap="round" stroke-linejoin="round"/>
<path d="M92.74 99.512C96.452 102.244 100.834 102.284 102.28 94.524" stroke="black" stroke-width="0.676" stroke-linecap="round" stroke-linejoin="round"/>
<path d="M92.74 99.512C95.162 94.036 94.668 85.18 89.63 86.498C84.256 87.904 87.928 95.97 92.74 99.512Z" stroke="black" stroke-width="0.676" stroke-linecap="round" stroke-linejoin="round"/>
<path d="M102.436 175.664L82.538 99.696C87.19 106.002 90.854 103.786 92.738 99.512" stroke="black" stroke-width="0.676" stroke-linecap="round" stroke-linejoin="round"/>
<path d="M131.168 179.896C132.135 180.317 132.947 181.029 133.491 181.932C134.034 182.836 134.283 183.886 134.202 184.938C134.121 185.989 133.715 186.99 133.039 187.8C132.363 188.61 131.452 189.188 130.432 189.456L105.288 196.04C104.644 196.208 103.973 196.248 103.313 196.158C102.654 196.066 102.019 195.846 101.444 195.51C100.87 195.174 100.367 194.726 99.9652 194.196C99.5634 193.666 99.27 193.06 99.102 192.416C98.9906 191.998 98.9342 191.566 98.934 191.132C98.9356 190.012 99.3078 188.924 99.9926 188.036C100.678 187.15 101.636 186.514 102.72 186.23L127.862 179.646C128.961 179.359 130.125 179.447 131.168 179.896Z" stroke="black" stroke-width="0.676" stroke-linecap="round" stroke-linejoin="round"/>
<path d="M124.312 201.624L115.828 203.842C114.54 204.18 113.198 204.262 111.878 204.082C110.558 203.9 109.287 203.462 108.138 202.79C106.988 202.116 105.982 201.224 105.178 200.162C104.373 199.1 103.786 197.89 103.45 196.602L131.554 189.246C131.772 190.088 131.883 190.952 131.884 191.822C131.881 194.062 131.137 196.24 129.767 198.012C128.398 199.786 126.479 201.056 124.312 201.624Z" stroke="black" stroke-width="0.676" stroke-linecap="round" stroke-linejoin="round"/>
<path d="M352.74 178.24C365.406 185.633 374.704 197.656 378.676 211.772C382.648 225.89 380.984 240.996 374.032 253.91C367.082 266.822 355.386 276.532 341.416 280.988C327.444 285.446 312.288 284.304 299.142 277.802C285.998 271.302 275.89 259.95 270.954 246.14C266.016 232.332 266.634 217.144 272.678 203.782C278.722 190.422 289.718 179.928 303.348 174.517C316.978 169.106 332.178 169.2 345.74 174.778C348.152 175.765 350.49 176.92 352.74 178.234" stroke="black" stroke-width="0.676" stroke-linecap="round" stroke-linejoin="round"/>
<path d="M130.878 179.044L131.006 179.018L170.082 171.648" stroke="black" stroke-width="0.676" stroke-linecap="round" stroke-linejoin="round"/>
<path d="M232.05 211.516L253.96 327.69L32.43 369.484L1.12799 203.518L98.238 185.196H98.244" stroke="black" stroke-width="0.676" stroke-linecap="round" stroke-linejoin="round"/>
<path d="M28.982 223.874L160.738 199.016" stroke="black" stroke-width="0.676" stroke-linecap="round" stroke-linejoin="round"/>
<path d="M20.118 211.3C20.2982 212.264 20.1886 213.26 19.8032 214.16C19.4178 215.062 18.7738 215.83 17.9528 216.366C17.1318 216.9 16.1702 217.182 15.1898 217.17C14.2096 217.16 13.2542 216.86 12.4446 216.306C11.6351 215.754 11.0076 214.974 10.6414 214.064C10.2752 213.154 10.1867 212.156 10.3872 211.196C10.5877 210.238 11.068 209.358 11.7677 208.672C12.4672 207.984 13.3548 207.52 14.318 207.338C14.959 207.216 15.6178 207.222 16.2566 207.356C16.8952 207.49 17.5014 207.748 18.0402 208.116C18.579 208.484 19.0398 208.954 19.3964 209.5C19.753 210.048 19.9982 210.658 20.118 211.3Z" stroke="black" stroke-width="0.676" stroke-linecap="round" stroke-linejoin="round"/>
<path d="M40.886 207.378C41.0676 208.342 40.9596 209.338 40.5754 210.24C40.1912 211.142 39.5482 211.91 38.7274 212.448C37.9068 212.984 36.9454 213.266 35.9648 213.256C34.9842 213.248 34.0282 212.948 33.218 212.396C32.4076 211.842 31.7792 211.062 31.4122 210.154C31.0452 209.244 30.956 208.246 31.156 207.286C31.356 206.326 31.836 205.446 32.5354 204.758C33.235 204.072 34.1226 203.608 35.086 203.424C35.7264 203.302 36.3846 203.308 37.0228 203.442C37.661 203.574 38.2666 203.832 38.8052 204.2C39.3438 204.566 39.8048 205.036 40.162 205.582C40.519 206.128 40.765 206.738 40.886 207.378Z" stroke="black" stroke-width="0.676" stroke-linecap="round" stroke-linejoin="round"/>
<path d="M61.656 203.464C61.836 204.428 61.7266 205.424 61.3412 206.324C60.9558 207.226 60.3118 207.994 59.4908 208.53C58.6696 209.064 57.7082 209.346 56.7278 209.334C55.7474 209.324 54.7922 209.024 53.9826 208.47C53.173 207.918 52.5456 207.138 52.1794 206.228C51.8132 205.318 51.7246 204.32 51.9252 203.36C52.1256 202.402 52.606 201.522 53.3056 200.836C54.0052 200.148 54.8928 199.684 55.856 199.502C56.497 199.38 57.1556 199.388 57.794 199.522C58.4326 199.654 59.0386 199.912 59.5772 200.28C60.1158 200.648 60.5766 201.12 60.9334 201.666C61.29 202.212 61.5356 202.822 61.656 203.464Z" stroke="black" stroke-width="0.676" stroke-linecap="round" stroke-linejoin="round"/>
<path d="M267.63 218.316L232.05 211.516L164.916 198.684L170.082 171.648L170.752 168.174L191.398 60.138L368.83 94.056L352.74 178.234V178.24" stroke="black" stroke-width="0.676" stroke-linecap="round" stroke-linejoin="round"/>
<path d="M207.428 82.908L348.596 109.89" stroke="black" stroke-width="0.676" stroke-linecap="round" stroke-linejoin="round"/>
<path d="M203.776 72C203.622 72.8046 203.234 73.5456 202.658 74.1292C202.084 74.7128 201.348 75.1128 200.546 75.2788C199.744 75.4446 198.91 75.369 198.152 75.0612C197.392 74.7536 196.742 74.2276 196.282 73.55C195.822 72.8724 195.572 72.0736 195.566 71.2544C195.56 70.4354 195.796 69.6326 196.246 68.948C196.696 68.2634 197.338 67.7276 198.092 67.4082C198.848 67.089 199.68 67.0004 200.484 67.154C201.018 67.256 201.528 67.4622 201.982 67.761C202.436 68.0596 202.828 68.445 203.134 68.895C203.44 69.345 203.654 69.8508 203.764 70.3836C203.874 70.9164 203.878 71.4656 203.776 72Z" stroke="black" stroke-width="0.676" stroke-linecap="round" stroke-linejoin="round"/>
<path d="M221.112 75.31C220.958 76.115 220.57 76.8564 219.994 77.4404C219.42 78.0244 218.684 78.4246 217.882 78.5908C217.078 78.7568 216.244 78.6812 215.486 78.3734C214.726 78.0656 214.074 77.5396 213.614 76.8616C213.154 76.1838 212.904 75.3844 212.898 74.565C212.892 73.7454 213.128 72.9424 213.578 72.2574C214.028 71.5724 214.672 71.0362 215.426 70.7166C216.18 70.3972 217.012 70.3086 217.818 70.462C218.354 70.5634 218.862 70.7692 219.318 71.0678C219.774 71.3664 220.166 71.752 220.472 72.2024C220.778 72.6528 220.992 73.159 221.102 73.6924C221.212 74.2256 221.214 74.7754 221.112 75.31Z" stroke="black" stroke-width="0.676" stroke-linecap="round" stroke-linejoin="round"/>
<path d="M238.452 78.63C238.296 79.4342 237.906 80.1746 237.33 80.7574C236.754 81.34 236.02 81.739 235.216 81.9038C234.414 82.0686 233.58 81.9918 232.822 81.6832C232.064 81.3746 231.412 80.8478 230.954 80.1698C230.494 79.4916 230.244 78.6926 230.24 77.8734C230.234 77.0542 230.47 76.2516 230.92 75.5672C231.372 74.8828 232.014 74.347 232.768 74.0278C233.524 73.7088 234.356 73.6204 235.16 73.774C236.24 73.9822 237.194 74.6106 237.81 75.521C238.428 76.4314 238.658 77.5496 238.452 78.63Z" stroke="black" stroke-width="0.676" stroke-linecap="round" stroke-linejoin="round"/>
<path d="M344.858 161.412C346.372 163.664 346.724 167.632 345.75 174.778" stroke="black" stroke-width="0.676" stroke-linecap="round" stroke-linejoin="round"/>
<path d="M330.788 170.492C332.756 165.016 334.71 160.452 337.69 159.114" stroke="black" stroke-width="0.676" stroke-linecap="round" stroke-linejoin="round"/>
<path d="M295.504 138.176C299.96 144.524 294.904 163.508 295.728 177.976" stroke="black" stroke-width="0.676" stroke-linecap="round" stroke-linejoin="round"/>
<path d="M260.038 110.452C269.862 122.6 250.238 176.38 263.48 178.524C276.63 180.646 278.28 142.882 288.38 136.824" stroke="black" stroke-width="0.676" stroke-linecap="round" stroke-linejoin="round"/>
<path d="M208.766 113.088C218.866 125.44 196.036 187.704 216.656 191.16C237.656 194.682 238.456 115.994 253.028 108.626" stroke="black" stroke-width="0.676" stroke-linecap="round" stroke-linejoin="round"/>
<path d="M170.752 168.174C179.088 169.282 186.998 117.868 201.302 111.594" stroke="black" stroke-width="0.676" stroke-linecap="round" stroke-linejoin="round"/>
<path d="M71.708 247.11C74.655 249.626 76.9708 252.796 78.4694 256.37C79.9678 259.942 80.607 263.816 80.3358 267.682C80.0644 271.546 78.89 275.294 76.907 278.622C74.924 281.95 72.1878 284.766 68.9182 286.846C65.6488 288.924 61.937 290.206 58.0818 290.59C54.2264 290.972 50.335 290.446 46.7202 289.052C43.1056 287.658 39.8684 285.434 37.269 282.562C34.6698 279.688 32.7808 276.246 31.754 272.51C31.57 271.86 31.422 271.204 31.294 270.536C30.3422 265.5 30.977 260.292 33.111 255.63C35.2448 250.97 38.7726 247.086 43.2074 244.516C47.6424 241.944 52.7656 240.814 57.8706 241.278C62.9754 241.744 67.8104 243.78 71.708 247.11Z" stroke="black" stroke-width="0.676" stroke-linecap="round" stroke-linejoin="round"/>
<path d="M67.044 252.242C70.1586 254.836 72.2968 258.412 73.1066 262.384C73.9164 266.354 73.3494 270.484 71.4988 274.09C69.6484 277.696 66.6248 280.564 62.9262 282.222C59.2278 283.878 55.075 284.228 51.152 283.208C47.229 282.19 43.7698 279.866 41.3442 276.62C38.9188 273.372 37.6716 269.396 37.8084 265.346C37.945 261.294 39.4574 257.412 42.0964 254.336C44.7352 251.258 48.3432 249.174 52.326 248.422C54.909 247.928 57.5698 248.014 60.1154 248.674C62.661 249.334 65.0276 250.554 67.044 252.242Z" stroke="black" stroke-width="0.676" stroke-linecap="round" stroke-linejoin="round"/>
<path d="M58.938 283.462L60.222 290.284" stroke="black" stroke-width="0.676" stroke-linecap="round" stroke-linejoin="round"/>
<path d="M67.044 252.242L71.708 247.11" stroke="black" stroke-width="0.676" stroke-linecap="round" stroke-linejoin="round"/>
<path d="M38.486 271.238L31.754 272.51L31.672 272.524" stroke="black" stroke-width="0.676" stroke-linecap="round" stroke-linejoin="round"/>
<path d="M216.696 314.702L237.106 310.85L218.508 212.252" stroke="black" stroke-width="0.676" stroke-linecap="round" stroke-linejoin="round"/>
<path d="M189.004 319.922L206.908 316.548" stroke="black" stroke-width="0.676" stroke-linecap="round" stroke-linejoin="round"/>
<path d="M179.222 321.768L189.004 319.928" stroke="black" stroke-width="0.676" stroke-linecap="round" stroke-linejoin="round"/>
<path d="M161.314 325.148L179.222 321.774" stroke="black" stroke-width="0.676" stroke-linecap="round" stroke-linejoin="round"/>
<path d="M133.622 330.374L151.53 326.994" stroke="black" stroke-width="0.676" stroke-linecap="round" stroke-linejoin="round"/>
<path d="M105.316 335.714L123.84 332.22" stroke="black" stroke-width="0.676" stroke-linecap="round" stroke-linejoin="round"/>
<path d="M61.48 310.01L42.928 313.512L40.854 302.506L59.404 299.012L61.48 310.01Z" stroke="black" stroke-width="0.676" stroke-linecap="round" stroke-linejoin="round"/>
<path d="M64.576 326.412L46.024 329.914L43.95 318.908L62.5 315.412L64.576 326.412Z" stroke="black" stroke-width="0.676" stroke-linecap="round" stroke-linejoin="round"/>
<path d="M67.666 342.814L49.122 346.316L47.046 335.308L65.59 331.814L67.666 342.814Z" stroke="black" stroke-width="0.676" stroke-linecap="round" stroke-linejoin="round"/>
<path d="M133.622 330.374L123.84 332.22L121.764 321.214L104.828 231.46L114.618 229.614L131.546 319.368L133.622 330.374Z" stroke="black" stroke-width="0.676" stroke-linecap="round" stroke-linejoin="round"/>
<path d="M161.314 325.148L151.53 326.994L142.228 277.696L132.52 226.234L142.31 224.388L152.018 275.85L161.314 325.148Z" stroke="black" stroke-width="0.676" stroke-linecap="round" stroke-linejoin="round"/>
<path d="M189.004 319.928L179.222 321.774V321.768L174.05 294.366L160.212 221.014L169.994 219.168L183.834 292.522L189.004 319.922V319.928Z" stroke="black" stroke-width="0.676" stroke-linecap="round" stroke-linejoin="round"/>
<path d="M216.696 314.702L206.908 316.548L194.59 251.22L187.902 215.788L197.686 213.942L204.372 249.374L216.696 314.702Z" stroke="black" stroke-width="0.676" stroke-linecap="round" stroke-linejoin="round"/>
<path d="M121.764 321.214L131.546 319.368" stroke="black" stroke-width="0.676" stroke-linecap="round" stroke-linejoin="round"/>
<path d="M142.228 277.696L152.01 275.85" stroke="black" stroke-width="0.676" stroke-linecap="round" stroke-linejoin="round"/>
<path d="M174.05 294.366L183.834 292.522" stroke="black" stroke-width="0.676" stroke-linecap="round" stroke-linejoin="round"/>
<path d="M194.59 251.22L204.372 249.374" stroke="black" stroke-width="0.676" stroke-linecap="round" stroke-linejoin="round"/>
<path d="M364.396 187.224L324 227.62L283.606 268.014" stroke="black" stroke-width="0.676" stroke-linecap="round" stroke-linejoin="round"/>
<path d="M283.606 187.224L324 227.62" stroke="black" stroke-width="0.676" stroke-linecap="round" stroke-linejoin="round"/>
<path d="M71.248 19.38L66.36 1.26001" stroke="black" stroke-width="0.676" stroke-linecap="round" stroke-linejoin="round"/>
<path d="M92.43 19.38L94.404 3.13403" stroke="black" stroke-width="0.676" stroke-linecap="round" stroke-linejoin="round"/>
<path d="M52.548 31.8458L41.786 19.3798" stroke="black" stroke-width="0.676" stroke-linecap="round" stroke-linejoin="round"/>
</svg>
